# xmcd
#
# Track frame offsets: 
#        187
#        12862
#        20950
#        27437
#        31875
#        40137
#        46300
#        58475
#        66600
#        85012
#        93825
#        103525
#        119337
#        125575
#        136275
#        142712
#        152437
#        162900
#        172612
#        186125
#        203487
#        215125
#        225937
#        237375
#        248475
#        260762
#        270937
#        281837
#        294600
#        308612
#
# Disc length: 4260 seconds
#
# Revision: 1
# Processed by: cddbd v1.5.2PL0 Copyright (c) Steve Scherf et al.
# Submitted via: ExactAudioCopy v0.99pb5
#
DISCID=9f10a21e
DTITLE=Hank Williames -  Great American Hero - disc 6 Low Down Blues (
DTITLE=non-session and overdubbed non-session)
DYEAR=1995
DGENRE=
TTITLE0=There's A Tear In My Beer
TTITLE1=All The Love I Ever Had
TTITLE2=When The Book Of Life Is Read
TTITLE3=If You'll Be A Baby (To Me)
TTITLE4=Ready To Go Home
TTITLE5=Low Down Blues
TTITLE6=I Ain't Got Nothin' But Time
TTITLE7=The Angel Of Death
TTITLE8=Message To My Mother
TTITLE9=California Zephyr
TTITLE10=We're Getting Closer To The Grave Each Day
TTITLE11=The Burdens Are Greater Than Mine
TTITLE12=Last Night I Dreamed Of Heaven
TTITLE13=The Log Train
TTITLE14=Fool About You
TTITLE15=Rockin' Chair Money
TTITLE16=Tennessee Border
TTITLE17=My Name Trial Is Yet To Come
TTITLE18=The Devil's Train
TTITLE19=Cool Water
TTITLE20=Dixie Cannonball
TTITLE21=I'm Free At Last
TTITLE22=I'm Just Don't Matter Now
TTITLE23=Swing Wide Your Gate Of Love
TTITLE24=The Old Home
TTITLE25=Roly Poly
TTITLE26=We Live In Two Diffrent Worlds
TTITLE27=Wait Foe The Light To Shine
TTITLE28=Rock My Cradle (Once Again)
TTITLE29=First Year Blues
EXTD=
EXTT0=
EXTT1=
EXTT2=
EXTT3=
EXTT4=
EXTT5=
EXTT6=
EXTT7=
EXTT8=
EXTT9=
EXTT10=
EXTT11=
EXTT12=
EXTT13=
EXTT14=
EXTT15=
EXTT16=
EXTT17=
EXTT18=
EXTT19=
EXTT20=
EXTT21=
EXTT22=
EXTT23=
EXTT24=
EXTT25=
EXTT26=
EXTT27=
EXTT28=
EXTT29=
PLAYORDER=
